<mxfile host="app.diagrams.net" modified="2022-04-26T05:55:14.557Z" agent="5.0 (Windows NT 10.0; Win64; x64) AppleWebKit/537.36 (KHTML, like Gecko) Chrome/100.0.4896.127 Safari/537.36" etag="PCYTZ3mTmrByBdQBWKEz" version="17.4.6" type="github" pages="3">
  <diagram id="C5RBs43oDa-KdzZeNtuy" name="q2">
    <mxGraphModel dx="1185" dy="662" grid="1" gridSize="10" guides="1" tooltips="1" connect="1" arrows="1" fold="1" page="1" pageScale="1" pageWidth="827" pageHeight="1169" math="0" shadow="0">
      <root>
        <mxCell id="WIyWlLk6GJQsqaUBKTNV-0" />
        <mxCell id="WIyWlLk6GJQsqaUBKTNV-1" parent="WIyWlLk6GJQsqaUBKTNV-0" />
        <mxCell id="UOGeXKKcADIb35PcflZh-0" value="&lt;&lt;Interface&gt;&gt; FileWriteable" style="swimlane;fontStyle=1;align=center;verticalAlign=top;childLayout=stackLayout;horizontal=1;startSize=26;horizontalStack=0;resizeParent=1;resizeParentMax=0;resizeLast=0;collapsible=1;marginBottom=0;" vertex="1" parent="WIyWlLk6GJQsqaUBKTNV-1">
          <mxGeometry x="210" y="80" width="220" height="52" as="geometry" />
        </mxCell>
        <mxCell id="UOGeXKKcADIb35PcflZh-3" value="+ writeToFile(BufferedWriter): void" style="text;strokeColor=none;fillColor=none;align=left;verticalAlign=top;spacingLeft=4;spacingRight=4;overflow=hidden;rotatable=0;points=[[0,0.5],[1,0.5]];portConstraint=eastwest;" vertex="1" parent="UOGeXKKcADIb35PcflZh-0">
          <mxGeometry y="26" width="220" height="26" as="geometry" />
        </mxCell>
        <mxCell id="UOGeXKKcADIb35PcflZh-4" value="Point" style="swimlane;fontStyle=1;align=center;verticalAlign=top;childLayout=stackLayout;horizontal=1;startSize=26;horizontalStack=0;resizeParent=1;resizeParentMax=0;resizeLast=0;collapsible=1;marginBottom=0;" vertex="1" parent="WIyWlLk6GJQsqaUBKTNV-1">
          <mxGeometry x="240" y="210" width="160" height="70" as="geometry" />
        </mxCell>
        <mxCell id="UOGeXKKcADIb35PcflZh-5" value="- x: int&#xa;- y: int" style="text;strokeColor=none;fillColor=none;align=left;verticalAlign=top;spacingLeft=4;spacingRight=4;overflow=hidden;rotatable=0;points=[[0,0.5],[1,0.5]];portConstraint=eastwest;" vertex="1" parent="UOGeXKKcADIb35PcflZh-4">
          <mxGeometry y="26" width="160" height="44" as="geometry" />
        </mxCell>
        <mxCell id="UOGeXKKcADIb35PcflZh-8" value="Student" style="swimlane;fontStyle=1;align=center;verticalAlign=top;childLayout=stackLayout;horizontal=1;startSize=26;horizontalStack=0;resizeParent=1;resizeParentMax=0;resizeLast=0;collapsible=1;marginBottom=0;" vertex="1" parent="WIyWlLk6GJQsqaUBKTNV-1">
          <mxGeometry x="30" y="210" width="160" height="70" as="geometry" />
        </mxCell>
        <mxCell id="UOGeXKKcADIb35PcflZh-9" value="- name: String&#xa;- id: double" style="text;strokeColor=none;fillColor=none;align=left;verticalAlign=top;spacingLeft=4;spacingRight=4;overflow=hidden;rotatable=0;points=[[0,0.5],[1,0.5]];portConstraint=eastwest;" vertex="1" parent="UOGeXKKcADIb35PcflZh-8">
          <mxGeometry y="26" width="160" height="44" as="geometry" />
        </mxCell>
        <mxCell id="UOGeXKKcADIb35PcflZh-10" value="Car" style="swimlane;fontStyle=1;align=center;verticalAlign=top;childLayout=stackLayout;horizontal=1;startSize=26;horizontalStack=0;resizeParent=1;resizeParentMax=0;resizeLast=0;collapsible=1;marginBottom=0;" vertex="1" parent="WIyWlLk6GJQsqaUBKTNV-1">
          <mxGeometry x="450" y="210" width="160" height="70" as="geometry" />
        </mxCell>
        <mxCell id="UOGeXKKcADIb35PcflZh-11" value="- model: string&#xa;- colour: string" style="text;strokeColor=none;fillColor=none;align=left;verticalAlign=top;spacingLeft=4;spacingRight=4;overflow=hidden;rotatable=0;points=[[0,0.5],[1,0.5]];portConstraint=eastwest;" vertex="1" parent="UOGeXKKcADIb35PcflZh-10">
          <mxGeometry y="26" width="160" height="44" as="geometry" />
        </mxCell>
        <mxCell id="UOGeXKKcADIb35PcflZh-12" value="" style="endArrow=block;dashed=1;endFill=0;endSize=12;html=1;rounded=0;exitX=0.5;exitY=0;exitDx=0;exitDy=0;" edge="1" parent="WIyWlLk6GJQsqaUBKTNV-1" source="UOGeXKKcADIb35PcflZh-8" target="UOGeXKKcADIb35PcflZh-3">
          <mxGeometry width="160" relative="1" as="geometry">
            <mxPoint x="90" y="170" as="sourcePoint" />
            <mxPoint x="250" y="170" as="targetPoint" />
            <Array as="points">
              <mxPoint x="110" y="120" />
            </Array>
          </mxGeometry>
        </mxCell>
        <mxCell id="UOGeXKKcADIb35PcflZh-13" value="" style="endArrow=block;dashed=1;endFill=0;endSize=12;html=1;rounded=0;exitX=0.5;exitY=0;exitDx=0;exitDy=0;" edge="1" parent="WIyWlLk6GJQsqaUBKTNV-1" source="UOGeXKKcADIb35PcflZh-4">
          <mxGeometry width="160" relative="1" as="geometry">
            <mxPoint x="314" y="209.9999999999999" as="sourcePoint" />
            <mxPoint x="320" y="130" as="targetPoint" />
            <Array as="points" />
          </mxGeometry>
        </mxCell>
        <mxCell id="UOGeXKKcADIb35PcflZh-14" value="" style="endArrow=block;dashed=1;endFill=0;endSize=12;html=1;rounded=0;exitX=0.5;exitY=0;exitDx=0;exitDy=0;" edge="1" parent="WIyWlLk6GJQsqaUBKTNV-1" target="UOGeXKKcADIb35PcflZh-3">
          <mxGeometry width="160" relative="1" as="geometry">
            <mxPoint x="510" y="209.9999999999999" as="sourcePoint" />
            <mxPoint x="610" y="119.52380952380952" as="targetPoint" />
            <Array as="points">
              <mxPoint x="510" y="120" />
            </Array>
          </mxGeometry>
        </mxCell>
        <mxCell id="UOGeXKKcADIb35PcflZh-20" value="" style="endArrow=diamondThin;endFill=0;endSize=24;html=1;rounded=0;entryX=0.5;entryY=0;entryDx=0;entryDy=0;" edge="1" parent="WIyWlLk6GJQsqaUBKTNV-1" source="UOGeXKKcADIb35PcflZh-5">
          <mxGeometry width="160" relative="1" as="geometry">
            <mxPoint x="245" y="330" as="sourcePoint" />
            <mxPoint x="320" y="370" as="targetPoint" />
          </mxGeometry>
        </mxCell>
        <mxCell id="UOGeXKKcADIb35PcflZh-22" value="0..100" style="edgeLabel;html=1;align=center;verticalAlign=middle;resizable=0;points=[];rotation=90;" vertex="1" connectable="0" parent="UOGeXKKcADIb35PcflZh-20">
          <mxGeometry x="0.7519" y="7" relative="1" as="geometry">
            <mxPoint x="13" y="-59" as="offset" />
          </mxGeometry>
        </mxCell>
        <mxCell id="UOGeXKKcADIb35PcflZh-23" value="" style="endArrow=diamondThin;endFill=0;endSize=24;html=1;rounded=0;entryX=0.016;entryY=0.045;entryDx=0;entryDy=0;entryPerimeter=0;" edge="1" parent="WIyWlLk6GJQsqaUBKTNV-1" target="UOGeXKKcADIb35PcflZh-32">
          <mxGeometry width="160" relative="1" as="geometry">
            <mxPoint x="109.58000000000001" y="279.9999999999999" as="sourcePoint" />
            <mxPoint x="210" y="395" as="targetPoint" />
            <Array as="points">
              <mxPoint x="110" y="397" />
            </Array>
          </mxGeometry>
        </mxCell>
        <mxCell id="UOGeXKKcADIb35PcflZh-24" value="0..100" style="edgeLabel;html=1;align=center;verticalAlign=middle;resizable=0;points=[];rotation=90;" vertex="1" connectable="0" parent="UOGeXKKcADIb35PcflZh-23">
          <mxGeometry x="0.7519" y="7" relative="1" as="geometry">
            <mxPoint x="-112" y="-88" as="offset" />
          </mxGeometry>
        </mxCell>
        <mxCell id="UOGeXKKcADIb35PcflZh-25" value="" style="endArrow=diamondThin;endFill=0;endSize=24;html=1;rounded=0;entryX=0.979;entryY=-0.019;entryDx=0;entryDy=0;entryPerimeter=0;" edge="1" parent="WIyWlLk6GJQsqaUBKTNV-1" target="UOGeXKKcADIb35PcflZh-32">
          <mxGeometry width="160" relative="1" as="geometry">
            <mxPoint x="529.58" y="279.9999999999999" as="sourcePoint" />
            <mxPoint x="430" y="395" as="targetPoint" />
            <Array as="points">
              <mxPoint x="530" y="395" />
            </Array>
          </mxGeometry>
        </mxCell>
        <mxCell id="UOGeXKKcADIb35PcflZh-26" value="0..100" style="edgeLabel;html=1;align=center;verticalAlign=middle;resizable=0;points=[];rotation=90;" vertex="1" connectable="0" parent="UOGeXKKcADIb35PcflZh-25">
          <mxGeometry x="0.7519" y="7" relative="1" as="geometry">
            <mxPoint x="132" y="-102" as="offset" />
          </mxGeometry>
        </mxCell>
        <mxCell id="UOGeXKKcADIb35PcflZh-29" value="Database" style="swimlane;fontStyle=1;align=center;verticalAlign=top;childLayout=stackLayout;horizontal=1;startSize=26;horizontalStack=0;resizeParent=1;resizeParentMax=0;resizeLast=0;collapsible=1;marginBottom=0;" vertex="1" parent="WIyWlLk6GJQsqaUBKTNV-1">
          <mxGeometry x="240" y="370" width="160" height="52" as="geometry" />
        </mxCell>
        <mxCell id="UOGeXKKcADIb35PcflZh-32" value="+ writeAll(String): void" style="text;strokeColor=none;fillColor=none;align=left;verticalAlign=top;spacingLeft=4;spacingRight=4;overflow=hidden;rotatable=0;points=[[0,0.5],[1,0.5]];portConstraint=eastwest;" vertex="1" parent="UOGeXKKcADIb35PcflZh-29">
          <mxGeometry y="26" width="160" height="26" as="geometry" />
        </mxCell>
      </root>
    </mxGraphModel>
  </diagram>
  <diagram id="5qqX1G8ma00oZlaWjTtM" name="q3">
    <mxGraphModel dx="1422" dy="794" grid="1" gridSize="10" guides="1" tooltips="1" connect="1" arrows="1" fold="1" page="1" pageScale="1" pageWidth="827" pageHeight="1169" math="0" shadow="0">
      <root>
        <mxCell id="0" />
        <mxCell id="1" parent="0" />
      </root>
    </mxGraphModel>
  </diagram>
  <diagram id="a9L7xRw8Cx8k53FIvrl-" name="q4">
    <mxGraphModel dx="1422" dy="794" grid="1" gridSize="10" guides="1" tooltips="1" connect="1" arrows="1" fold="1" page="1" pageScale="1" pageWidth="827" pageHeight="1169" math="0" shadow="0">
      <root>
        <mxCell id="0" />
        <mxCell id="1" parent="0" />
      </root>
    </mxGraphModel>
  </diagram>
</mxfile>
